<svg xmlns="http://www.w3.org/2000/svg" width="335.867" height="259.096" viewBox="0 0 335.867 259.096">
  <g id="code" transform="translate(0 -6.605)">
    <g id="Group_597" data-name="Group 597" transform="translate(60.089 8.903)">
      <circle id="Ellipse_27" data-name="Ellipse 27" cx="113.489" cy="113.489" r="113.489" transform="translate(0 29.821)" fill="#e09441" opacity="0.2"/>
      <path id="Path_434" data-name="Path 434" d="M193.033,203.224V241.38a114.162,114.162,0,0,0,14.084,16.381V203.224h.022v-.129c.066-.283,6.913-5.959,12.177-10.271V190.44l-6.371-1.646a12.1,12.1,0,0,0-7.82.607c-1.106.476-2.255.932-3.4,1.3v4.984c-5.266,4.311-8.6,7.128-8.668,7.41v.129Z" transform="translate(-172.235 -32.634)" fill="#a82424" opacity="0.3"/>
      <g id="Group_25835" data-name="Group 25835" transform="translate(6.624)">
        <path id="Path_24596" data-name="Path 24596" d="M273.916,217.943a65.35,65.35,0,0,0-6.071-34.385C254.3,156,257.4,154,256.983,126.641a10.118,10.118,0,0,0-20.237,0V228.38a22.434,22.434,0,0,1-.479,4.6v14.565a22.285,22.285,0,0,1-22.258,22.26H158.621a78.591,78.591,0,0,0,33.658,26.711c.084.033.168.069.253.1a33,33,0,0,1,17.6,17.763A122.172,122.172,0,0,0,279.7,286.861l-7.541-27.7a35.366,35.366,0,0,1-1.121-12.164Zm0,0" transform="translate(-98.191 -58.141)" fill="#f9cfa9"/>
        <path id="Path_24597" data-name="Path 24597" d="M60.855,111.274l-3.082-2.855a11.776,11.776,0,1,0-16.007,17.275l19.09,17.688Zm0,0" transform="translate(-38.008 -52.54)" fill="#f9cfa9"/>
        <path id="Path_24598" data-name="Path 24598" d="M184.276,0H97.742A15.245,15.245,0,0,0,82.515,15.228V197.59a15.245,15.245,0,0,0,15.226,15.228h86.534A15.247,15.247,0,0,0,199.5,197.59V15.228A15.247,15.247,0,0,0,184.276,0Zm0,0" transform="translate(-60.216)" fill="#414141"/>
        <path id="Path_24599" data-name="Path 24599" d="M111.833,11.293A7.691,7.691,0,0,1,115.045,0H97.74A15.229,15.229,0,0,0,82.512,15.228V197.59A15.227,15.227,0,0,0,97.74,212.816h18.4V24.638a23.98,23.98,0,0,0-4.3-13.346Zm0,0" transform="translate(-60.214 0)" fill="#414141"/>
        <path id="Path_24600" data-name="Path 24600" d="M100.109,191.977V293.383a6.413,6.413,0,0,0,6.412,6.413h86.534a6.413,6.413,0,0,0,6.412-6.413V191.977Zm0,0" transform="translate(-68.995 -95.793)" fill="#fff"/>
        <path id="Path_24601" data-name="Path 24601" d="M100.109,191.977V293.383a6.413,6.413,0,0,0,6.412,6.414h15.168V191.977Zm0,0" transform="translate(-68.995 -95.793)" fill="#e09441"/>
        <path id="Path_24602" data-name="Path 24602" d="M149.666,243.024a10.046,10.046,0,1,1-10.046-10.048A10.046,10.046,0,0,1,149.666,243.024Zm0,0" transform="translate(-83.697 -116.249)" fill="#585858"/>
        <path id="Path_24603" data-name="Path 24603" d="M149.666,317.378a10.046,10.046,0,1,1-10.046-10.046A10.047,10.047,0,0,1,149.666,317.378Zm0,0" transform="translate(-83.697 -153.351)" fill="#585858"/>
        <path id="Path_24604" data-name="Path 24604" d="M138.485,233.113a10.045,10.045,0,1,0,9.451,15.614A10.052,10.052,0,0,1,138.485,233.113Zm0,0" transform="translate(-83.696 -116.318)" fill="#414141"/>
        <path id="Path_24605" data-name="Path 24605" d="M138.485,307.469a10.045,10.045,0,1,0,9.451,15.614A10.052,10.052,0,0,1,138.485,307.469Zm0,0" transform="translate(-83.696 -153.42)" fill="#414141"/>
        <g id="Group_20469" data-name="Group 20469" transform="translate(78.956 115.083)">
          <path id="Path_24606" data-name="Path 24606" d="M213.618,237.21H199.355a3.758,3.758,0,0,1,0-7.515h14.263a3.758,3.758,0,0,1,0,7.515Zm0,0" transform="translate(-195.597 -229.695)" fill="#8a8a8a"/>
          <path id="Path_24607" data-name="Path 24607" d="M227.882,268.882H199.355a3.758,3.758,0,1,1,0-7.515h28.527a3.758,3.758,0,1,1,0,7.515Zm0,0" transform="translate(-195.597 -245.499)" fill="#8a8a8a"/>
          <path id="Path_24608" data-name="Path 24608" d="M213.618,311.562H199.355a3.758,3.758,0,0,1,0-7.515h14.263a3.758,3.758,0,0,1,0,7.515Zm0,0" transform="translate(-195.597 -266.795)" fill="#8a8a8a"/>
          <path id="Path_24609" data-name="Path 24609" d="M227.882,343.234H199.355a3.758,3.758,0,1,1,0-7.515h28.527a3.758,3.758,0,1,1,0,7.515Zm0,0" transform="translate(-195.597 -282.599)" fill="#8a8a8a"/>
        </g>
        <path id="Path_24610" data-name="Path 24610" d="M192.954,17.6h-12.86a2.195,2.195,0,0,0-2.2,2.194,5.3,5.3,0,0,1-5.288,5.29H126.768a5.3,5.3,0,0,1-5.29-5.29,2.195,2.195,0,0,0-2.2-2.194h-12.86a6.413,6.413,0,0,0-6.413,6.412v81.958h99.359V24.009a6.413,6.413,0,0,0-6.413-6.412Zm0,0" transform="translate(-68.945 -8.781)" fill="#e09441"/>
        <path id="Path_24611" data-name="Path 24611" d="M121.638,21.06a5.209,5.209,0,0,1-.16-1.266,2.2,2.2,0,0,0-2.2-2.2h-12.86a6.413,6.413,0,0,0-6.413,6.412v81.958h21.63Zm0,0" transform="translate(-68.945 -8.781)" fill="#e09441"/>
        <path id="Path_24612" data-name="Path 24612" d="M240.078,17.6h-12.86a2.195,2.195,0,0,0-2.2,2.194,5.3,5.3,0,0,1-5.288,5.29H194.45l52.042,65.235V24.009a6.413,6.413,0,0,0-6.413-6.412Zm0,0" transform="translate(-116.068 -8.781)" fill="#282a29"/>
        <path id="Path_24613" data-name="Path 24613" d="M145.918,69.722H128.59a3.758,3.758,0,1,1,0-7.515h17.328a3.758,3.758,0,0,1,0,7.515Zm0,0" transform="translate(-81.331 -31.04)" fill="#fff"/>
        <path id="Path_24614" data-name="Path 24614" d="M82.788,207.98a10.321,10.321,0,0,1-14.582.556L50.922,192.521a10.319,10.319,0,0,1,14.027-15.138L82.232,193.4A10.321,10.321,0,0,1,82.788,207.98Zm0,0" transform="translate(-42.802 -87.139)" fill="#f9cfa9"/>
        <path id="Path_24615" data-name="Path 24615" d="M94.551,204.5l-8.222-7.617A12.114,12.114,0,0,1,72.3,212.021l8.22,7.617A10.319,10.319,0,1,0,94.551,204.5Zm0,0" transform="translate(-55.121 -98.241)" fill="#fbbc8d"/>
        <path id="Path_24616" data-name="Path 24616" d="M82.788,264.154a10.319,10.319,0,0,1-14.582.556L50.922,248.694a10.318,10.318,0,0,1,14.027-15.136l17.283,16.015A10.318,10.318,0,0,1,82.788,264.154Zm0,0" transform="translate(-42.802 -115.167)" fill="#f9cfa9"/>
        <path id="Path_24617" data-name="Path 24617" d="M82.788,320.328a10.319,10.319,0,0,1-14.582.556L50.922,304.868A10.319,10.319,0,0,1,64.949,289.73l17.283,16.015A10.321,10.321,0,0,1,82.788,320.328Zm0,0" transform="translate(-42.802 -143.197)" fill="#f9cfa9"/>
        <path id="Path_24618" data-name="Path 24618" d="M293.415,395.233a35.591,35.591,0,0,1-1.086-6,82.342,82.342,0,0,1-91.113,36.905,78.5,78.5,0,0,0,12.318,6.455l.252.106a32.987,32.987,0,0,1,17.6,17.763,122.173,122.173,0,0,0,69.568-27.527Zm0,0" transform="translate(-119.444 -194.22)" fill="#fbbc8d"/>
        <path id="Path_24619" data-name="Path 24619" d="M94.551,260.676l-8.222-7.617A12.113,12.113,0,0,1,72.3,268.2l8.22,7.615a10.318,10.318,0,1,0,14.027-15.136Zm0,0" transform="translate(-55.121 -126.272)" fill="#fbbc8d"/>
        <path id="Path_24620" data-name="Path 24620" d="M94.551,316.848l-8.222-7.617A12.114,12.114,0,0,1,72.3,324.369l8.22,7.617a10.319,10.319,0,1,0,14.027-15.138Zm0,0" transform="translate(-55.121 -154.299)" fill="#fbbc8d"/>
      </g>
    </g>
    <g id="Group_598" data-name="Group 598" transform="translate(231.347 6.605)">
      <path id="Path_435" data-name="Path 435" d="M379.324,101.7l-33.3,78.141L321.68,163.186l-14.106,20.5-2.545-34.576-29.459-17.951Z" transform="translate(-275.569 -101.697)" fill="#d8d9d9"/>
      <path id="Path_436" data-name="Path 436" d="M302.985,150.705l29.737,20.351L308.381,154.4l-14.106,20.5-2.545-34.576,46.941-27.956Z" transform="translate(-262.271 -92.915)" fill="#838484"/>
      <path id="Path_437" data-name="Path 437" d="M292.353,148.8l46.317-36.431-46.941,27.956Z" transform="translate(-262.271 -92.915)" fill="#585e60"/>
    </g>
    <path id="Path_438" data-name="Path 438" d="M203.439,208.614a2.364,2.364,0,0,0,.226-4.716,56.153,56.153,0,0,1-37.009-19.2,2.364,2.364,0,0,0-3.566,3.1A60.844,60.844,0,0,0,203.207,208.6C203.285,208.611,203.362,208.614,203.439,208.614Z" transform="translate(-137.266 -27.459)" fill="#fdd835"/>
    <g id="Group_603" data-name="Group 603" transform="translate(0 7.484)" opacity="0.2">
      <path id="Path_452" data-name="Path 452" d="M306.13,222.4a7.943,7.943,0,1,0,7.943-7.943A7.943,7.943,0,0,0,306.13,222.4Zm4.729,0a3.215,3.215,0,1,1,3.214,3.216A3.213,3.213,0,0,1,310.859,222.4Z" transform="translate(-19.073 -9.778)" fill="#d32f2f"/>
      <path id="Path_453" data-name="Path 453" d="M148.661,157.526a6.08,6.08,0,1,0,6.08-6.079A6.08,6.08,0,0,0,148.661,157.526Zm3.618,0a2.462,2.462,0,1,1,2.461,2.461A2.462,2.462,0,0,1,152.279,157.526Z" transform="translate(-148.661 -61.634)" fill="#d32f2f"/>
      <path id="Path_454" data-name="Path 454" d="M318.633,188.229a6.76,6.76,0,1,1-6.761,6.761A6.761,6.761,0,0,1,318.633,188.229Z" transform="translate(-14.348 -31.365)" fill="#d32f2f"/>
      <path id="Path_455" data-name="Path 455" d="M180.332,201.159a4.916,4.916,0,1,1-4.916,4.916A4.916,4.916,0,0,1,180.332,201.159Z" transform="translate(-126.643 -20.724)" fill="#fdd835"/>
      <path id="Path_456" data-name="Path 456" d="M280.316,102.179a7.186,7.186,0,1,1-7.186,7.186A7.186,7.186,0,0,1,280.316,102.179Z" transform="translate(-46.23 -102.179)" fill="#ffb300"/>
      <path id="Path_457" data-name="Path 457" d="M205.064,119.647a6.145,6.145,0,1,1-6.147,6.145A6.145,6.145,0,0,1,205.064,119.647Z" transform="translate(-107.303 -87.804)" fill="#fdd835"/>
      <circle id="Ellipse_28" data-name="Ellipse 28" cx="3.808" cy="3.808" r="3.808" transform="translate(328.25 77.299)" fill="#d32f2f"/>
      <path id="Path_458" data-name="Path 458" d="M249.482,109.478l-2.392-2.392a2.132,2.132,0,1,1,3.015-3.015l2.392,2.392,2.392-2.392a2.132,2.132,0,0,1,3.015,3.015l-2.392,2.392,2.392,2.392a2.132,2.132,0,0,1-3.015,3.015l-2.392-2.392-2.392,2.392a2.132,2.132,0,0,1-3.015-3.015Z" transform="translate(-68.171 -101.134)" fill="#ffb300"/>
      <path id="Path_459" data-name="Path 459" d="M176.626,222.882l-2.025-2.027a1.8,1.8,0,1,1,2.552-2.552l2.027,2.025L181.2,218.3a1.805,1.805,0,0,1,2.554,2.552l-2.027,2.027,2.027,2.025a1.805,1.805,0,0,1-2.554,2.552l-2.025-2.025-2.027,2.025a1.8,1.8,0,0,1-2.552-2.552Z" transform="translate(-127.749 -7.05)" fill="#d32f2f"/>
    </g>
    <g id="Group_604" data-name="Group 604" transform="translate(136.17 93.21)" opacity="0.4">
      <path id="Path_460" data-name="Path 460" d="M293.851,154.333c.261-1.524.594-3.041.988-4.515l-2.282-.613c-.414,1.544-.762,3.134-1.035,4.725Z" transform="translate(-167.266 -149.205)" fill="#a82424"/>
      <path id="Path_461" data-name="Path 461" d="M371.279,198.555a17.172,17.172,0,0,0,8.346-2.776l1.305,1.969a19.542,19.542,0,0,1-9.494,3.168Zm-17.451-5.678,1.759-1.58a23.763,23.763,0,0,0,7.071,5.569l-1.043,2.122A26.108,26.108,0,0,1,353.828,192.877Zm31.562-3.724a17.126,17.126,0,0,0,1.792-7.543c0-.206,0-.414-.013-.627l-.022-.43,2.357-.173.027.512c.011.239.015.479.015.718a19.5,19.5,0,0,1-2.038,8.59Zm-98.927.126.173-2.357c3.17.233,6.339.359,9.419.374l-.013,2.364C292.909,189.645,289.686,189.515,286.463,189.278Zm19-2.29,1.478-.111c2.837-.237,5.4-.556,7.844-.979l.4,2.33c-2.51.434-5.144.762-8.05,1l-1.51.117Zm-37.972-.275.447-2.321c3.141.605,6.275,1.125,9.315,1.537l-.319,2.344C273.854,187.853,270.678,187.328,267.5,186.713Zm56.329-3.066a43.625,43.625,0,0,0,7.345-3.256c.352-.2.7-.4,1.044-.609l1.221,2.023c-.367.221-.736.438-1.107.645a45.778,45.778,0,0,1-7.742,3.433Zm20.28-7.51,2.224-.8a53.161,53.161,0,0,0,3.9,8.429l-2.049,1.178A55.431,55.431,0,0,1,344.1,176.137Zm-95.192,6.1.651-2.273c3.11.89,6.189,1.7,9.144,2.421l-.556,2.3C255.163,183.955,252.055,183.133,248.912,182.234Zm-18.16-5.861.789-2.228q4.46,1.583,8.969,3.05l-.729,2.25Q235.242,177.974,230.752,176.374Zm109.181-1.956a68.778,68.778,0,0,1,7.3-4.793c.279-.151.56-.3.842-.447l1.083,2.1-.791.419a65.432,65.432,0,0,0-7.039,4.63Zm36.058-5.771.795-2.229a20.194,20.194,0,0,1,8.7,4.668l-1.654,1.69A18.41,18.41,0,0,0,375.991,168.646Zm-18.718-2.793A40.08,40.08,0,0,1,367,164.9l-.058,2.364-.957-.013a37.569,37.569,0,0,0-8.194.908Zm-16.542-8.747,2.364-.011a54.886,54.886,0,0,0,.839,9.257l-2.326.414A57,57,0,0,1,340.732,157.107Z" transform="translate(-217.275 -142.711)" fill="#a82424"/>
      <path id="Path_462" data-name="Path 462" d="M227.785,167.608l.84-2.209q-2.207-.84-4.408-1.7l-.859,2.2Q225.566,166.761,227.785,167.608Z" transform="translate(-223.359 -137.28)" fill="#a82424"/>
    </g>
  </g>
</svg>
